<svg width="124" height="123" viewBox="0 0 124 123" fill="none" xmlns="http://www.w3.org/2000/svg">
<path d="M73.3316 7.84261L73.49 7.94393L73.6759 7.91579L86.9762 5.90242L94.3797 17.1337L94.4832 17.2907L94.6645 17.3406L107.634 20.9111L109.829 34.1826L109.86 34.3681L110.005 34.4875L120.401 43.0244L117.008 56.0414L116.961 56.2234L117.045 56.3915L123.07 68.4187L114.676 78.9305L114.559 79.0774L114.567 79.2653L115.18 92.7032L103.236 98.8921L103.069 98.9786L103 99.1537L98.0938 111.679L84.6655 112.475L84.4778 112.486L84.3439 112.618L74.7671 122.065L62.176 117.33L62 117.264L61.824 117.33L49.2329 122.065L39.6561 112.618L39.5222 112.486L39.3345 112.475L25.9062 111.679L20.9996 99.1537L20.9311 98.9786L20.7641 98.8921L8.82046 92.7032L9.43253 79.2653L9.44108 79.0774L9.32377 78.9305L0.929948 68.4187L6.95482 56.3915L7.03903 56.2234L6.99161 56.0414L3.599 43.0244L13.9949 34.4875L14.1402 34.3681L14.1709 34.1826L16.3661 20.9111L29.3355 17.3406L29.5168 17.2907L29.6203 17.1337L37.0237 5.90242L50.3241 7.91579L50.51 7.94393L50.6684 7.84261L62 0.593558L73.3316 7.84261Z" stroke="white"/>
</svg>
