<svg width="30" height="30" viewBox="0 0 30 30" fill="none" xmlns="http://www.w3.org/2000/svg">
<circle cx="15" cy="15" r="14.5" stroke="#47093E"/>
<path d="M14.624 10.648C14.24 10.648 13.936 10.536 13.712 10.312C13.488 10.088 13.376 9.8 13.376 9.448C13.376 9.04267 13.504 8.70667 13.76 8.44C14.016 8.17333 14.3573 8.04 14.784 8.04C15.2107 8.04 15.536 8.15733 15.76 8.392C15.984 8.616 16.096 8.89867 16.096 9.24C16.096 9.66667 15.968 10.008 15.712 10.264C15.456 10.52 15.0987 10.648 14.64 10.648H14.624ZM13.776 13.624L12.64 13.32V12.248L15.568 11.896H15.6L16.048 12.216V19.912L17.12 20.04V21H12.656V20.04L13.776 19.896V13.624Z" fill="#47093E"/>
</svg>
