<svg width="32" height="20" viewBox="0 0 32 20" fill="none" xmlns="http://www.w3.org/2000/svg">
<path d="M30.9336 1.67188C31.1094 0.96875 30.9336 0.382812 29.8789 0.382812H26.4219C25.543 0.382812 25.1328 0.851562 24.8984 1.37891C24.8984 1.37891 23.1406 5.65625 20.6797 8.46875C19.8594 9.23047 19.5078 9.52344 19.0391 9.52344C18.8633 9.52344 18.5117 9.23047 18.5117 8.52734V1.67188C18.5117 0.792969 18.2773 0.382812 17.5156 0.382812H12.125C11.5391 0.382812 11.2461 0.792969 11.2461 1.20312C11.2461 2.02344 12.4766 2.19922 12.5938 4.54297V9.64062C12.5938 10.7539 12.418 10.9883 11.9492 10.9883C10.7773 10.9883 7.96484 6.65234 6.26562 1.73047C5.91406 0.792969 5.5625 0.382812 4.68359 0.382812H1.22656C0.289062 0.382812 0.0546875 0.851562 0.0546875 1.37891C0.0546875 2.31641 1.22656 6.82812 5.50391 12.8633C8.375 16.9648 12.418 19.1328 16.0508 19.1328C18.2188 19.1328 18.5117 18.6641 18.5117 17.8438C18.5117 13.918 18.3359 13.5078 19.3906 13.5078C19.918 13.5078 20.7969 13.8008 22.8477 15.793C25.1914 18.1367 25.6016 19.1328 26.8906 19.1328H30.3477C31.3438 19.1328 31.8125 18.6641 31.5195 17.668C30.875 15.6758 26.4805 11.457 26.2461 11.1641C25.7188 10.5195 25.8945 10.2266 26.2461 9.64062C26.2461 9.64062 30.4648 3.66406 30.9336 1.67188Z" fill="#7A7A7A"/>
</svg>
