<svg width="27" height="27" viewBox="0 0 27 27" fill="none" xmlns="http://www.w3.org/2000/svg">
<path d="M10.7812 9.17969C10.7812 10.4102 11.8359 11.4648 13.125 11.4648C14.3555 11.4648 15.4102 10.4688 15.4102 9.17969C15.4102 7.83203 14.3555 6.83594 13.125 6.83594C11.8359 6.83594 10.7812 7.83203 10.7812 9.17969ZM26.25 3.4375C26.25 1.91406 24.9609 0.625 23.4375 0.625H2.8125C1.23047 0.625 0 1.91406 0 3.4375V24.0625C0 25.6445 1.23047 26.875 2.8125 26.875H23.4375C24.9609 26.875 26.25 25.6445 26.25 24.0625V3.4375ZM8.32031 9.17969C8.32031 6.54297 10.4883 4.375 13.125 4.375C15.7031 4.375 17.8711 6.54297 17.8711 9.17969C17.8711 11.7578 15.7031 13.8672 13.125 13.8672C10.4883 13.8672 8.32031 11.7578 8.32031 9.17969ZM18.5742 14.4531C19.043 15.3906 18.5156 15.8594 17.2852 16.6211C16.2891 17.2656 14.9414 17.5 14.0039 17.6172L14.7656 18.3789L17.5781 21.1914C18.5742 22.2461 16.9336 23.8281 15.8789 22.832C15.1758 22.1289 14.1797 21.1328 13.125 20.0195L10.3125 22.832C9.25781 23.8281 7.61719 22.1875 8.67188 21.1914C9.375 20.4297 10.3711 19.4336 11.4258 18.3789L12.1875 17.6172C11.3086 17.5 9.90234 17.2656 8.90625 16.6211C7.67578 15.8594 7.14844 15.3906 7.61719 14.4531C7.91016 13.9258 8.61328 13.457 9.60938 14.2773C9.60938 14.2773 10.957 15.332 13.125 15.332C15.2344 15.332 16.582 14.2773 16.582 14.2773C17.5781 13.457 18.2812 13.9258 18.5742 14.4531Z" fill="#7A7A7A"/>
</svg>
