<svg width="90" height="41" viewBox="0 0 90 41" fill="none" xmlns="http://www.w3.org/2000/svg">
<g clip-path="url(#clip0_0_185)">
<path d="M5.34672 11.6536V16.9975H0.181641V0H6.20247C11.7801 0 14.2328 2.67199 14.2328 5.82678C14.2328 8.98156 11.7801 11.6536 6.20247 11.6536H5.34672ZM8.9149 5.82678C8.92808 5.43677 8.86664 5.04804 8.73449 4.68529C8.60233 4.32255 8.40234 3.99373 8.14724 3.71973C7.89214 3.44573 7.58751 3.23254 7.2527 3.09372C6.91789 2.95491 6.56024 2.89349 6.20247 2.91339H5.34672V8.74016H6.20247C6.55803 8.75657 6.91284 8.69251 7.24453 8.55201C7.57622 8.41152 7.87757 8.19764 8.12957 7.92389C8.38157 7.65013 8.57875 7.32244 8.70866 6.96149C8.83856 6.60054 8.89838 6.21418 8.88434 5.82678H8.9149Z" fill="#828282"/>
<path d="M15.129 0.083252H19.8127V5.344H20.0343C20.8243 4.64798 21.8072 4.26366 22.8232 4.25356C25.6044 4.25356 27.5069 6.3179 27.5069 8.98989V17.0059H22.8232V8.98989C22.843 8.76719 22.8215 8.5424 22.7599 8.32896C22.6982 8.11553 22.5977 7.91782 22.4643 7.74766C22.331 7.57749 22.1675 7.43837 21.9836 7.33859C21.7998 7.23882 21.5994 7.18044 21.3944 7.16694C20.8056 7.2195 20.2581 7.5177 19.8662 7.99934V16.9892H15.129V0.083252Z" fill="#828282"/>
<path d="M30.4556 6.80067C31.0332 5.98741 31.7779 5.33324 32.6299 4.89083C33.4819 4.44842 34.4173 4.23013 35.3609 4.25353C39.0437 4.25353 41.2595 6.65916 41.2595 9.72238V13.36C41.2692 14.5905 41.4181 15.815 41.7027 17.0058H36.9273L36.8126 16.0319H36.5911C35.8196 16.8723 34.7784 17.3529 33.6876 17.3721C30.8988 17.3721 29.0039 15.3078 29.0039 13.002C29.0039 10.9377 30.8988 8.84004 33.6876 8.84004C34.7085 8.80981 35.7161 9.09866 36.5911 9.67243C36.5911 8.00764 35.6971 6.99212 34.36 6.99212C33.3995 7.05474 32.4902 7.48519 31.7927 8.20742L30.4556 6.80067ZM36.5681 12.0281C36.1055 11.7262 35.5791 11.5599 35.04 11.5453C34.8644 11.5453 34.6906 11.583 34.5283 11.6562C34.3661 11.7294 34.2187 11.8367 34.0945 11.972C33.9704 12.1072 33.8719 12.2678 33.8047 12.4446C33.7375 12.6213 33.7029 12.8107 33.7029 13.002C33.7029 13.1933 33.7375 13.3827 33.8047 13.5595C33.8719 13.7362 33.9704 13.8968 34.0945 14.0321C34.2187 14.1673 34.3661 14.2746 34.5283 14.3478C34.6906 14.421 34.8644 14.4587 35.04 14.4587C35.6271 14.3996 36.1725 14.1025 36.5681 13.6263V12.0281Z" fill="#828282"/>
<path d="M5.24148 38.6648C4.21684 38.7035 3.19975 38.4607 2.2838 37.9588C1.36786 37.457 0.582499 36.7122 0 35.7931L1.33711 34.2948C1.69327 34.7635 2.13567 35.1457 2.63577 35.4166C3.13587 35.6876 3.68255 35.8414 4.24056 35.868C5.57767 35.868 6.11252 35.2603 6.11252 34.6527C6.11252 33.4374 0.672377 33.6871 0.672377 29.4336C0.672377 27.6106 2.56726 25.5463 5.91386 25.5463C6.8185 25.4952 7.72054 25.6908 8.53835 26.1152C9.35615 26.5396 10.0639 27.1794 10.5976 27.9769L9.25282 29.4336C8.95108 29.0859 8.5891 28.8069 8.1878 28.6126C7.78649 28.4183 7.35382 28.3126 6.91478 28.3015C6.02083 28.3015 5.46306 28.9175 5.46306 29.4003C5.46306 30.6156 10.9261 30.3742 10.9261 34.6194C10.9261 36.6255 9.03124 38.6648 5.24148 38.6648Z" fill="#828282"/>
<path d="M17.7339 33.4374C17.7339 35.0189 18.4979 35.868 19.5218 35.868C20.0672 35.8136 20.5793 35.5581 20.9735 35.1438L22.0891 36.8086C21.606 37.3883 21.016 37.8504 20.3576 38.1646C19.6993 38.4787 18.9874 38.6378 18.2687 38.6315C15.0367 38.6315 13.0349 36.4423 13.0349 33.4041V28.8259H11.2699L16.0453 22.7494H17.7339V25.9125H20.6297L20.1789 28.8259H17.7339V33.4374Z" fill="#828282"/>
<path d="M35.0482 34.6528C35.0586 35.8805 35.2074 37.1022 35.4914 38.2903H30.7007L30.5632 37.3248H30.3416C29.5378 38.1834 28.457 38.6646 27.3312 38.6649C24.5423 38.6649 22.6475 36.6006 22.6475 33.9286V25.9126H27.3541V33.9286C27.3286 34.1565 27.3467 34.3877 27.4072 34.6077C27.4677 34.8277 27.5693 35.0316 27.7057 35.2068C27.842 35.3819 28.0101 35.5244 28.1995 35.6253C28.3888 35.7262 28.5952 35.7833 28.8058 35.7931C29.3929 35.734 29.9383 35.437 30.334 34.9607V25.9126H35.0177L35.0482 34.6528Z" fill="#828282"/>
<path d="M49.9856 34.6527C49.9959 35.8804 50.1448 37.1021 50.4287 38.2903H45.638L45.5234 37.3164H45.3019C44.498 38.175 43.4172 38.6562 42.2914 38.6565C41.5115 38.6548 40.7398 38.4822 40.0223 38.1489C39.3049 37.8156 38.6563 37.3285 38.1152 36.7165C37.5741 36.1045 37.1516 35.3801 36.8728 34.5866C36.5939 33.793 36.4645 32.9464 36.4922 32.0972C36.4645 31.2481 36.5939 30.4015 36.8728 29.6079C37.1516 28.8144 37.5741 28.09 38.1152 27.478C38.6563 26.866 39.3049 26.3789 40.0223 26.0456C40.7398 25.7123 41.5115 25.5397 42.2914 25.538C43.2743 25.5251 44.2407 25.8135 45.0803 26.3704H45.3019V21.376H49.9856V34.6527ZM45.3019 34.9024V28.9508C44.8413 28.6428 44.314 28.4733 43.7737 28.4597C42.4366 28.4597 41.3211 29.675 41.3211 32.1056C41.3211 34.5362 42.4061 35.7931 43.7202 35.7931C44.3346 35.7351 44.9031 35.4149 45.3019 34.9024Z" fill="#828282"/>
<path d="M55.013 24.4557C54.577 24.4329 54.1566 24.2712 53.804 23.9906C53.4515 23.7101 53.1822 23.323 53.0296 22.8773C52.877 22.4317 52.8478 21.947 52.9456 21.4835C53.0434 21.0199 53.2639 20.5978 53.5798 20.2694C53.8956 19.9411 54.293 19.7209 54.7226 19.6362C55.1522 19.5514 55.5952 19.6059 55.9967 19.7928C56.3982 19.9797 56.7405 20.2908 56.9812 20.6876C57.222 21.0844 57.3506 21.5494 57.3511 22.0251C57.3351 22.6845 57.0802 23.3102 56.6421 23.7656C56.2041 24.221 55.6184 24.4691 55.013 24.4557ZM57.3434 38.2901H52.6597V26.1538H57.3434V38.2901Z" fill="#828282"/>
<path d="M66.3743 25.5464C70.3856 25.5464 73.1745 28.5846 73.1745 32.1057C73.1745 35.6267 70.3856 38.665 66.3743 38.665C62.363 38.665 59.597 35.6267 59.597 32.1057C59.597 28.5846 62.363 25.5464 66.3743 25.5464ZM66.3743 35.993C67.3752 35.993 68.3838 34.9025 68.3838 32.1057C68.3838 29.3088 67.3752 28.2184 66.3743 28.2184C65.3734 28.2184 64.3648 29.3088 64.3648 32.1057C64.3648 34.9025 65.3734 35.993 66.3743 35.993Z" fill="#828282"/>
<path d="M51.6513 4.28684C51.4833 4.28684 51.3152 4.28684 51.1394 4.28684C50.0218 4.27909 48.9451 4.74469 48.1367 5.58538H47.9074L47.7928 4.6198H42.9945L43.4453 8.25737V17.0059H48.1367V8.25737C48.7055 7.75469 49.4069 7.46305 50.1385 7.42497C50.9733 7.32252 51.8146 7.54354 52.5147 8.04927L51.6513 4.28684Z" fill="#828282"/>
<path d="M60.9493 8.99001C60.9493 7.77471 60.3915 7.16706 59.6122 7.16706C59.3294 7.18357 59.0533 7.26651 58.8027 7.41018C58.5521 7.55386 58.3331 7.75488 58.1605 7.99946V16.9893H53.4844V6.25142L53.0947 4.16211H56.4795L57.916 5.58551H58.1605C58.5315 5.1562 58.9807 4.816 59.4794 4.58667C59.978 4.35733 60.5151 4.24392 61.0563 4.25367C61.78 4.20678 62.5036 4.34755 63.1677 4.66444C63.8318 4.98134 64.4175 5.46531 64.8766 6.07662H65.0982C65.528 5.53061 66.0565 5.08695 66.6507 4.77331C67.2449 4.45967 67.892 4.28278 68.5518 4.25367C69.1423 4.21857 69.7332 4.3151 70.2883 4.53735C70.8434 4.75961 71.3511 5.10292 71.7802 5.54627C72.2093 5.98963 72.5509 6.52371 72.7841 7.11584C73.0172 7.70797 73.137 8.3457 73.1361 8.99001V17.006H68.4219V8.99001C68.4219 7.77471 67.8641 7.16706 67.0847 7.16706C66.802 7.18357 66.5259 7.26651 66.2753 7.41018C66.0247 7.55386 65.8056 7.75488 65.633 7.99946V16.9893H60.9493V8.99001Z" fill="#828282"/>
<path opacity="0.5" d="M85.5297 14.6418V14.1507C85.5297 13.5944 85.7326 13.0608 86.0937 12.6674C86.4548 12.2741 86.9445 12.0531 87.4552 12.0531H87.8678C88.1206 12.0575 88.3718 12.0076 88.607 11.9062C88.8421 11.8048 89.0566 11.654 89.2383 11.4623C89.4199 11.2706 89.5651 11.0418 89.6656 10.789C89.766 10.5361 89.8198 10.2642 89.8238 9.98872C89.8269 9.70834 89.7783 9.43012 89.681 9.17052C89.5837 8.91093 89.4397 8.67522 89.2573 8.47733C89.0749 8.27944 88.858 8.12339 88.6194 8.01841C88.3807 7.91343 88.1251 7.86164 87.8678 7.86611H83.5737C83.0644 7.87488 82.579 8.10318 82.2238 8.50102C81.8687 8.89885 81.6727 9.4338 81.6789 9.98872V14.6668C81.6789 15.2231 81.8817 15.7567 82.2428 16.15C82.6039 16.5434 83.0936 16.7644 83.6043 16.7644C83.8591 16.7644 84.1113 16.7094 84.3465 16.6024C84.5816 16.4954 84.7949 16.3387 84.974 16.1412C85.1531 15.9438 85.2944 15.7096 85.3898 15.4522C85.4852 15.1948 85.5328 14.9194 85.5297 14.6418Z" fill="#828282"/>
<path d="M81.6632 5.28563V5.76009C81.6632 6.31642 81.4604 6.84996 81.0993 7.24335C80.7382 7.63673 80.2485 7.85773 79.7378 7.85773H79.3023C79.0462 7.85659 78.7925 7.91111 78.556 8.01811C78.3195 8.12511 78.1049 8.28243 77.9249 8.48087C77.7449 8.6793 77.603 8.91487 77.5076 9.17377C77.4122 9.43267 77.3651 9.70971 77.3692 9.98867C77.3692 10.2648 77.4193 10.5383 77.5165 10.7933C77.6137 11.0484 77.7562 11.28 77.9358 11.4749C78.1155 11.6698 78.3286 11.8241 78.5631 11.929C78.7976 12.034 79.0488 12.0874 79.3023 12.0863H83.5887C84.0993 12.0863 84.5891 11.8653 84.9502 11.4719C85.3113 11.0785 85.5141 10.545 85.5141 9.98867V5.28563C85.5141 4.7293 85.3113 4.19576 84.9502 3.80237C84.5891 3.40899 84.0993 3.18799 83.5887 3.18799C83.078 3.18799 82.5883 3.40899 82.2272 3.80237C81.8661 4.19576 81.6632 4.7293 81.6632 5.28563Z" fill="#828282"/>
</g>
<defs>
<clipPath id="clip0_0_185">
<rect width="89.8234" height="41" fill="white"/>
</clipPath>
</defs>
</svg>
