<svg width="68" height="81" viewBox="0 0 68 81" fill="none" xmlns="http://www.w3.org/2000/svg">
<path d="M67.4617 33.9808C67.4617 38.5355 65.394 43.684 62.2252 48.8832C59.063 54.0715 54.839 59.2543 50.603 63.8649C46.3689 68.4735 42.1331 72.4991 38.955 75.3732C37.3662 76.81 36.0426 77.9582 35.1167 78.7468C34.6538 79.1411 34.2904 79.4455 34.043 79.651C34.0214 79.6689 34.0006 79.6861 33.9808 79.7025C33.961 79.6861 33.9403 79.6689 33.9187 79.651C33.6713 79.4455 33.3078 79.1411 32.8449 78.7468C31.919 77.9582 30.5954 76.81 29.0067 75.3732C25.8286 72.4991 21.5928 68.4735 17.3586 63.8649C13.1227 59.2543 8.89868 54.0715 5.73645 48.8832C2.56763 43.684 0.5 38.5355 0.5 33.9808C0.5 15.4899 15.4899 0.5 33.9808 0.5C52.4718 0.5 67.4617 15.4899 67.4617 33.9808Z" stroke="#47093E"/>
<path d="M25.0934 46.9553L34.5986 22.2419L44.1037 46.9553" stroke="#47093E" stroke-linejoin="bevel"/>
<path d="M27.8954 38.8512H41.3015" stroke="#47093E" stroke-linejoin="bevel"/>
</svg>
