<?xml version="1.0" encoding="UTF-8"?>
<!DOCTYPE svg PUBLIC "-//W3C//DTD SVG 1.1//EN" "http://www.w3.org/Graphics/SVG/1.1/DTD/svg11.dtd">
<!-- Creator: CorelDRAW 2020 (64-Bit) -->
<svg xmlns="http://www.w3.org/2000/svg" xml:space="preserve" width="381.529mm" height="197.052mm" version="1.1" style="shape-rendering:geometricPrecision; text-rendering:geometricPrecision; image-rendering:optimizeQuality; fill-rule:evenodd; clip-rule:evenodd"
viewBox="0 0 46487.5 24009.84"
 xmlns:xlink="http://www.w3.org/1999/xlink"
 xmlns:xodm="http://www.corel.com/coreldraw/odm/2003">
 <defs>
  <style type="text/css">
   <![CDATA[
    .fil1 {fill:transparent}
    .fil0 {fill:#80147C;fill-rule:nonzero}
    .fil2 {fill:transparent}
   ]]>
  </style>
 </defs>
 <g id="Слой_x0020_1">
  <metadata id="CorelCorpID_0Corel-Layer"/>
  <path class="fil0" d="M14312.54 9456.15c-4458.77,-1661.07 -10546.15,-1569.57 -14312.54,0l0 2984.94c0,0 9961.61,-4566.28 19616.95,6813.8 9655.34,11380.08 26870.54,-1241.16 26870.54,-1241.16l0 -15509.81c-20617.44,-9976.83 -14528.53,13526.22 -32174.95,6952.23z">
  
<animate 
attributeName="d"
dur="10s"
repeatCount="indefinite"
values="
M14312.54 9456.15c-4458.77,-1661.07 -10546.15,-1569.57 -14312.54,0l0 2984.94c0,0 9961.61,-4566.28 19616.95,6813.8 9655.34,11380.08 26870.54,-1241.16 26870.54,-1241.16l0 -15509.81c-20617.44,-9976.83 -14528.53,13526.22 -32174.95,6952.23z;

M13866.35 7505.59c-4252.45,-2383.21 -10099.95,-4248.67 -13866.35,-2679.1l0 8555.71c0,0 6847.41,-3907.75 20526.08,4067.97 15329.27,8078.88 25961.4,-3362.66 25961.4,-3362.66l0 -9043.5c-19114.24,-5836.75 -15749.15,9273.32 -32621.12,2461.57z;

M14312.54 9456.15c-4458.77,-1661.07 -10546.15,-1569.57 -14312.54,0l0 2984.94c0,0 9961.61,-4566.28 19616.95,6813.8 9655.34,11380.08 26870.54,-1241.16 26870.54,-1241.16l0 -15509.81c-20617.44,-9976.83 -14528.53,13526.22 -32174.95,6952.23z;
"
/>


  </path>

  <path class="fil1" d="M13866.35 7505.59c-4252.45,-2383.21 -10099.95,-4248.67 -13866.35,-2679.1l0 8555.71c0,0 6847.41,-3907.75 20526.08,4067.97 15329.27,8078.88 25961.4,-3362.66 25961.4,-3362.66l0 -9043.5c-19114.24,-5836.75 -15749.15,9273.32 -32621.12,2461.57z"/>
  <path class="fil2" d="M-0 2264.46l0 15509.8c0,0 15842.13,12219.93 26308.19,1792.4 9815.96,-11495.47 20179.27,-7365.04 20179.27,-7365.04l0 -2984.93c-13102.91,-4203.1 -14545.61,3529.5 -21112.4,1416.97 -9548.3,-3071.61 -9119.84,-15143.26 -25375.06,-8369.2z"/>
 </g>
</svg>