<svg width="203" height="39" viewBox="0 0 203 39" fill="none" xmlns="http://www.w3.org/2000/svg">
<g clip-path="url(#clip0_0_21)">
<path d="M23.652 28.7498C23.652 30.3119 23.358 31.6939 22.7699 32.896C22.1818 34.0909 21.3858 35.0771 20.3889 35.8545C19.2056 36.7831 17.9147 37.4453 16.5019 37.8412C15.0891 38.2371 13.2962 38.4315 11.1232 38.4315H0V6.95361H9.28725C11.575 6.95361 13.289 7.03999 14.4221 7.20555C15.5624 7.37111 16.6453 7.73102 17.6852 8.26369C18.8327 8.87554 19.6718 9.64575 20.1953 10.6031C20.7117 11.5533 20.977 12.6906 20.977 14.0151C20.977 15.5123 20.5969 16.7792 19.8367 17.8301C19.0765 18.8811 18.0653 19.7233 16.8031 20.3567V20.5295C18.9259 20.9686 20.5969 21.8971 21.8161 23.3296C23.0424 24.7548 23.652 26.5616 23.652 28.7498ZM16.6382 14.5621C16.6382 13.8063 16.5091 13.1585 16.2581 12.6402C16.0071 12.1219 15.5983 11.6972 15.0389 11.3733C14.3791 10.9918 13.5759 10.7615 12.6364 10.6679C11.6969 10.5743 10.5279 10.5311 9.13665 10.5311H4.17389V19.6225H9.56695C10.8722 19.6225 11.9121 19.5577 12.6866 19.4209C13.454 19.2842 14.1711 19.0106 14.8381 18.5859C15.4979 18.1685 15.964 17.6214 16.2366 16.9448C16.5019 16.2681 16.6382 15.4763 16.6382 14.5621ZM19.3132 28.9154C19.3132 27.6485 19.1267 26.6408 18.7466 25.8922C18.3665 25.1435 17.6781 24.5101 16.6812 23.9918C16.0071 23.6391 15.1895 23.4088 14.2285 23.308C13.2675 23.2 12.0985 23.1496 10.7216 23.1496H4.17389V34.8611H9.69604C11.5248 34.8611 13.0165 34.7676 14.1855 34.5732C15.3473 34.3861 16.3083 34.0333 17.047 33.5295C17.8358 32.9752 18.4096 32.349 18.7753 31.6435C19.1339 30.9381 19.3132 30.0311 19.3132 28.9154Z" fill="#47093E"/>
<path d="M50.2372 38.4315H29.5758V6.95361H50.2372V10.6751H33.7425V19.3058H50.2372V23.0273H33.7425V34.7172H50.2372V38.4315Z" fill="#47093E"/>
<path d="M80.8457 38.4315H76.6718V23.0201H61.0234V38.4315H56.8495V6.95361H61.0234V19.2986H76.6718V6.95361H80.8457V38.4315Z" fill="#47093E"/>
<path d="M114 38.4315H109.554L106.477 29.6568H92.9156L89.8389 38.4315H85.6077L97.0249 6.95361H102.583L114 38.4315ZM105.193 26.0649L99.6999 10.6103L94.1849 26.0649H105.193Z" fill="#47093E"/>
<path d="M139.273 16.4697C139.273 17.8661 139.029 19.1546 138.549 20.3495C138.061 21.5372 137.387 22.5738 136.519 23.4448C135.436 24.5317 134.16 25.3451 132.682 25.885C131.205 26.432 129.347 26.6984 127.103 26.6984H122.929V38.4315H118.755V6.95361H127.268C129.154 6.95361 130.746 7.11197 132.051 7.4287C133.356 7.74542 134.518 8.2421 135.529 8.91873C136.72 9.72493 137.645 10.7255 138.298 11.9204C138.943 13.1153 139.273 14.6341 139.273 16.4697ZM134.934 16.5704C134.934 15.4835 134.74 14.5405 134.368 13.7343C133.987 12.9353 133.414 12.2731 132.639 11.7692C131.965 11.3301 131.198 11.0206 130.33 10.8263C129.469 10.6391 128.372 10.5455 127.052 10.5455H122.922V23.128H126.443C128.128 23.128 129.498 22.9769 130.552 22.6745C131.606 22.3722 132.46 21.8899 133.12 21.2277C133.779 20.5511 134.246 19.8384 134.518 19.0898C134.798 18.3412 134.934 17.499 134.934 16.5704Z" fill="#47093E"/>
<path d="M166.97 6.95349L155.051 33.443C154.57 34.5155 154.011 35.3937 153.358 36.0847C152.705 36.7758 151.995 37.3084 151.242 37.6899C150.511 38.0426 149.808 38.2802 149.127 38.4025C148.445 38.5177 147.793 38.5825 147.155 38.5825C146.595 38.5825 145.914 38.5537 145.111 38.4961C144.307 38.4385 143.798 38.4026 143.569 38.3954V34.4795H143.863C144.078 34.5083 144.429 34.5515 144.917 34.6163C145.405 34.6811 145.971 34.7099 146.602 34.7099C146.882 34.7099 147.276 34.6883 147.786 34.6451C148.288 34.6019 148.739 34.5011 149.134 34.3499C149.586 34.1772 150.03 33.9109 150.468 33.5437C150.912 33.1766 151.285 32.644 151.594 31.9385L152.354 30.2686L140.686 6.94629H145.297L154.462 25.5105L162.674 6.94629H166.97V6.95349Z" fill="#47093E"/>
<path d="M195.534 36.1496C194.76 36.4879 194.064 36.8046 193.44 37.0997C192.816 37.3948 191.999 37.7044 190.988 38.0283C190.127 38.2946 189.202 38.525 188.198 38.7193C187.194 38.9065 186.089 39.0072 184.884 39.0072C182.611 39.0072 180.538 38.6833 178.681 38.0427C176.824 37.402 175.203 36.3943 173.826 35.0266C172.478 33.6878 171.423 31.989 170.67 29.9231C169.91 27.8572 169.53 25.4602 169.53 22.7249C169.53 20.1335 169.896 17.8157 170.627 15.7714C171.359 13.7271 172.406 11.9995 173.79 10.5886C175.124 9.22099 176.738 8.17724 178.624 7.45742C180.517 6.7376 182.611 6.37769 184.913 6.37769C186.599 6.37769 188.277 6.58643 189.955 6.98954C191.633 7.39983 193.498 8.11966 195.549 9.149V14.1158H195.233C193.505 12.6617 191.791 11.6108 190.091 10.9486C188.391 10.2863 186.57 9.9552 184.641 9.9552C183.049 9.9552 181.621 10.2143 180.352 10.7254C179.083 11.2437 177.95 12.0427 176.953 13.1224C175.984 14.1806 175.231 15.5194 174.686 17.1318C174.141 18.7442 173.876 20.6086 173.876 22.7249C173.876 24.9419 174.17 26.8422 174.772 28.4331C175.368 30.0311 176.142 31.3267 177.082 32.3273C178.064 33.371 179.212 34.1412 180.524 34.6451C181.837 35.149 183.221 35.3937 184.684 35.3937C186.692 35.3937 188.571 35.0482 190.328 34.3572C192.085 33.6662 193.727 32.6296 195.255 31.2476H195.549V36.1496H195.534Z" fill="#47093E"/>
<path d="M203 3.59192C203 4.58527 202.649 5.42746 201.953 6.12569C201.257 6.83112 200.411 7.17663 199.421 7.17663C198.439 7.17663 197.593 6.82392 196.897 6.12569C196.201 5.42746 195.85 4.57807 195.85 3.59192C195.85 2.60576 196.201 1.75637 196.897 1.05814C197.6 0.352713 198.439 0 199.429 0C200.418 0 201.257 0.352713 201.96 1.05094C202.656 1.75637 203 2.59856 203 3.59192ZM202.52 3.59192C202.52 2.73533 202.218 2.00111 201.609 1.38206C201.006 0.77021 200.275 0.460687 199.421 0.460687C198.568 0.460687 197.836 0.77021 197.234 1.38206C196.632 1.99391 196.323 2.73533 196.323 3.59192C196.323 4.4485 196.624 5.18272 197.234 5.80177C197.836 6.41362 198.568 6.72314 199.421 6.72314C200.275 6.72314 201.006 6.42082 201.609 5.80177C202.218 5.18272 202.52 4.4485 202.52 3.59192ZM201.731 5.41307H200.805L199.436 3.94463H198.769V5.41307H198.087V1.6196H199.378C199.637 1.6196 199.852 1.6268 200.017 1.65559C200.182 1.67719 200.346 1.72757 200.511 1.81395C200.684 1.90753 200.813 2.0227 200.892 2.15947C200.978 2.29623 201.013 2.46179 201.013 2.66334C201.013 2.92968 200.935 3.15282 200.777 3.33278C200.619 3.51274 200.404 3.6567 200.131 3.75747L201.731 5.41307ZM200.275 2.70653C200.275 2.60576 200.253 2.51938 200.217 2.4402C200.182 2.36102 200.117 2.29623 200.024 2.24585C199.938 2.19546 199.844 2.16667 199.751 2.15227C199.658 2.13787 199.536 2.13068 199.385 2.13068H198.769V3.41196H199.292C199.464 3.41196 199.608 3.39756 199.737 3.36877C199.859 3.33998 199.966 3.29679 200.038 3.232C200.124 3.16002 200.182 3.08804 200.217 3.00166C200.253 2.93688 200.275 2.8289 200.275 2.70653Z" fill="#47093E"/>
<path d="M23.652 28.7498C23.652 30.3119 23.358 31.6939 22.7699 32.896C22.1818 34.0909 21.3858 35.0771 20.3889 35.8545C19.2056 36.7831 17.9147 37.4453 16.5019 37.8412C15.0891 38.2371 13.2962 38.4315 11.1232 38.4315H0V6.95361H9.28725C11.575 6.95361 13.289 7.03999 14.4221 7.20555C15.5624 7.37111 16.6453 7.73102 17.6852 8.26369C18.8327 8.87554 19.6718 9.64575 20.1953 10.6031C20.7117 11.5533 20.977 12.6906 20.977 14.0151C20.977 15.5123 20.5969 16.7792 19.8367 17.8301C19.0765 18.8811 18.0653 19.7233 16.8031 20.3567V20.5295C18.9259 20.9686 20.5969 21.8971 21.8161 23.3296C23.0424 24.7548 23.652 26.5616 23.652 28.7498ZM16.6382 14.5621C16.6382 13.8063 16.5091 13.1585 16.2581 12.6402C16.0071 12.1219 15.5983 11.6972 15.0389 11.3733C14.3791 10.9918 13.5759 10.7615 12.6364 10.6679C11.6969 10.5743 10.5279 10.5311 9.13665 10.5311H4.17389V19.6225H9.56695C10.8722 19.6225 11.9121 19.5577 12.6866 19.4209C13.454 19.2842 14.1711 19.0106 14.8381 18.5859C15.4979 18.1685 15.964 17.6214 16.2366 16.9448C16.5019 16.2681 16.6382 15.4763 16.6382 14.5621ZM19.3132 28.9154C19.3132 27.6485 19.1267 26.6408 18.7466 25.8922C18.3665 25.1435 17.6781 24.5101 16.6812 23.9918C16.0071 23.6391 15.1895 23.4088 14.2285 23.308C13.2675 23.2 12.0985 23.1496 10.7216 23.1496H4.17389V34.8611H9.69604C11.5248 34.8611 13.0165 34.7676 14.1855 34.5732C15.3473 34.3861 16.3083 34.0333 17.047 33.5295C17.8358 32.9752 18.4096 32.349 18.7753 31.6435C19.1339 30.9381 19.3132 30.0311 19.3132 28.9154Z" fill="#47093E"/>
<path d="M50.2372 38.4315H29.5758V6.95361H50.2372V10.6751H33.7425V19.3058H50.2372V23.0273H33.7425V34.7172H50.2372V38.4315Z" fill="#47093E"/>
<path d="M80.8457 38.4315H76.6718V23.0201H61.0234V38.4315H56.8495V6.95361H61.0234V19.2986H76.6718V6.95361H80.8457V38.4315Z" fill="#47093E"/>
<path d="M114 38.4315H109.554L106.477 29.6568H92.9156L89.8389 38.4315H85.6077L97.0249 6.95361H102.583L114 38.4315ZM105.193 26.0649L99.6999 10.6103L94.1849 26.0649H105.193Z" fill="#47093E"/>
<path d="M139.273 16.4697C139.273 17.8661 139.029 19.1546 138.549 20.3495C138.061 21.5372 137.387 22.5738 136.519 23.4448C135.436 24.5317 134.16 25.3451 132.682 25.885C131.205 26.432 129.347 26.6984 127.103 26.6984H122.929V38.4315H118.755V6.95361H127.268C129.154 6.95361 130.746 7.11197 132.051 7.4287C133.356 7.74542 134.518 8.2421 135.529 8.91873C136.72 9.72493 137.645 10.7255 138.298 11.9204C138.943 13.1153 139.273 14.6341 139.273 16.4697ZM134.934 16.5704C134.934 15.4835 134.74 14.5405 134.368 13.7343C133.987 12.9353 133.414 12.2731 132.639 11.7692C131.965 11.3301 131.198 11.0206 130.33 10.8263C129.469 10.6391 128.372 10.5455 127.052 10.5455H122.922V23.128H126.443C128.128 23.128 129.498 22.9769 130.552 22.6745C131.606 22.3722 132.46 21.8899 133.12 21.2277C133.779 20.5511 134.246 19.8384 134.518 19.0898C134.798 18.3412 134.934 17.499 134.934 16.5704Z" fill="#47093E"/>
<path d="M166.97 6.95349L155.051 33.443C154.57 34.5155 154.011 35.3937 153.358 36.0847C152.705 36.7758 151.995 37.3084 151.242 37.6899C150.511 38.0426 149.808 38.2802 149.127 38.4025C148.445 38.5177 147.793 38.5825 147.155 38.5825C146.595 38.5825 145.914 38.5537 145.111 38.4961C144.307 38.4385 143.798 38.4026 143.569 38.3954V34.4795H143.863C144.078 34.5083 144.429 34.5515 144.917 34.6163C145.405 34.6811 145.971 34.7099 146.602 34.7099C146.882 34.7099 147.276 34.6883 147.786 34.6451C148.288 34.6019 148.739 34.5011 149.134 34.3499C149.586 34.1772 150.03 33.9109 150.468 33.5437C150.912 33.1766 151.285 32.644 151.594 31.9385L152.354 30.2686L140.686 6.94629H145.297L154.462 25.5105L162.674 6.94629H166.97V6.95349Z" fill="#47093E"/>
<path d="M195.534 36.1496C194.76 36.4879 194.064 36.8046 193.44 37.0997C192.816 37.3948 191.999 37.7044 190.988 38.0283C190.127 38.2946 189.202 38.525 188.198 38.7193C187.194 38.9065 186.089 39.0072 184.884 39.0072C182.611 39.0072 180.538 38.6833 178.681 38.0427C176.824 37.402 175.203 36.3943 173.826 35.0266C172.478 33.6878 171.423 31.989 170.67 29.9231C169.91 27.8572 169.53 25.4602 169.53 22.7249C169.53 20.1335 169.896 17.8157 170.627 15.7714C171.359 13.7271 172.406 11.9995 173.79 10.5886C175.124 9.22099 176.738 8.17724 178.624 7.45742C180.517 6.7376 182.611 6.37769 184.913 6.37769C186.599 6.37769 188.277 6.58643 189.955 6.98954C191.633 7.39983 193.498 8.11966 195.549 9.149V14.1158H195.233C193.505 12.6617 191.791 11.6108 190.091 10.9486C188.391 10.2863 186.57 9.9552 184.641 9.9552C183.049 9.9552 181.621 10.2143 180.352 10.7254C179.083 11.2437 177.95 12.0427 176.953 13.1224C175.984 14.1806 175.231 15.5194 174.686 17.1318C174.141 18.7442 173.876 20.6086 173.876 22.7249C173.876 24.9419 174.17 26.8422 174.772 28.4331C175.368 30.0311 176.142 31.3267 177.082 32.3273C178.064 33.371 179.212 34.1412 180.524 34.6451C181.837 35.149 183.221 35.3937 184.684 35.3937C186.692 35.3937 188.571 35.0482 190.328 34.3572C192.085 33.6662 193.727 32.6296 195.255 31.2476H195.549V36.1496H195.534Z" fill="#47093E"/>
</g>
<defs>
<clipPath id="clip0_0_21">
<rect width="203" height="39" fill="white"/>
</clipPath>
</defs>
</svg>
